<svg width="100%" viewBox="0 0 680 560" xmlns="http://www.w3.org/2000/svg" style="background:#1a1a1a;border-radius:12px;padding:16px 10px">

<!-- 1. TETRAHEDRAL CH4 -->
<g transform="translate(170, 140)">
  <circle cx="0" cy="0" r="20" fill="#2a2a2a" stroke="#4d9460" stroke-width="2.2"/>
  <text x="0" y="5" text-anchor="middle" fill="#e8e5de" font-size="15" font-weight="600" font-family="sans-serif">C</text>
  <line x1="0" y1="-20" x2="0" y2="-85" stroke="#4d9460" stroke-width="2.5" stroke-linecap="round"/>
  <text x="0" y="-95" text-anchor="middle" fill="#9a9690" font-size="14" font-family="sans-serif">H</text>
  <line x1="-14" y1="14" x2="-72" y2="72" stroke="#4d9460" stroke-width="2.5" stroke-linecap="round"/>
  <text x="-82" y="82" text-anchor="middle" fill="#9a9690" font-size="14" font-family="sans-serif">H</text>
  <polygon points="10,14 62,52 62,68" fill="#4d9460" fill-opacity="0.4" stroke="#4d9460" stroke-width="1.2" stroke-linejoin="round"/>
  <text x="72" y="68" text-anchor="start" fill="#9a9690" font-size="14" font-family="sans-serif">H</text>
  <line x1="14" y1="-8" x2="72" y2="-42" stroke="#4d9460" stroke-width="2.2" stroke-dasharray="5,4" stroke-linecap="round" opacity="0.6"/>
  <text x="82" y="-42" text-anchor="start" fill="#9a9690" font-size="14" font-family="sans-serif">H</text>
  <path d="M-40,38 A50,50 0 0,1 -10,-50" fill="none" stroke="#706b65" stroke-width="0.8" stroke-dasharray="3,2"/>
  <text x="-48" y="-10" fill="#9a9690" font-size="10" font-family="sans-serif">109.5°</text>
  <text x="0" y="110" text-anchor="middle" fill="#4d9460" font-size="13" font-weight="500" font-family="sans-serif">CH₄ — tetrahedral</text>
</g>

<!-- 2. PYRAMIDAL NH3 — lone pair UP, 3 H DOWN -->
<g transform="translate(510, 140)">
  <circle cx="0" cy="0" r="20" fill="#2a2a2a" stroke="#4d9460" stroke-width="2.2"/>
  <text x="0" y="5" text-anchor="middle" fill="#e8e5de" font-size="15" font-weight="600" font-family="sans-serif">N</text>
  <path d="M-9,-24 C-20,-50 -16,-80 0,-95 C16,-80 20,-50 9,-24 Z" fill="#d4a24c" fill-opacity="0.10" stroke="#d4a24c" stroke-width="1.3" stroke-opacity="0.45"/>
  <path d="M-5,-28 C-12,-48 -10,-72 0,-82 C10,-72 12,-48 5,-28 Z" fill="#d4a24c" fill-opacity="0.20"/>
  <text x="30" y="-60" fill="#d4a24c" font-size="11" font-family="sans-serif">lone pair</text>
  <line x1="-14" y1="14" x2="-75" y2="80" stroke="#4d9460" stroke-width="2.5" stroke-linecap="round"/>
  <text x="-85" y="90" text-anchor="middle" fill="#9a9690" font-size="14" font-family="sans-serif">H</text>
  <line x1="14" y1="14" x2="75" y2="80" stroke="#4d9460" stroke-width="2.5" stroke-linecap="round"/>
  <text x="85" y="90" text-anchor="middle" fill="#9a9690" font-size="14" font-family="sans-serif">H</text>
  <polygon points="-8,18 -18,82 18,82 8,18" fill="#4d9460" fill-opacity="0.35" stroke="#4d9460" stroke-width="1" stroke-linejoin="round"/>
  <text x="0" y="98" text-anchor="middle" fill="#9a9690" font-size="14" font-family="sans-serif">H</text>
  <path d="M-42,44 A52,52 0 0,1 42,44" fill="none" stroke="#706b65" stroke-width="0.8" stroke-dasharray="3,2"/>
  <text x="0" y="55" text-anchor="middle" fill="#9a9690" font-size="10" font-family="sans-serif">107°</text>
  <text x="0" y="120" text-anchor="middle" fill="#4d9460" font-size="13" font-weight="500" font-family="sans-serif">NH₃ — pyramidal</text>
</g>

<!-- 3. TRIGONAL PLANAR BF3 -->
<g transform="translate(170, 400)">
  <circle cx="0" cy="0" r="20" fill="#2a2a2a" stroke="#4d9460" stroke-width="2.2"/>
  <text x="0" y="5" text-anchor="middle" fill="#e8e5de" font-size="15" font-weight="600" font-family="sans-serif">B</text>
  <line x1="0" y1="-20" x2="0" y2="-85" stroke="#4d9460" stroke-width="2.5" stroke-linecap="round"/>
  <text x="0" y="-95" text-anchor="middle" fill="#9a9690" font-size="14" font-family="sans-serif">F</text>
  <line x1="-15" y1="12" x2="-75" y2="50" stroke="#4d9460" stroke-width="2.5" stroke-linecap="round"/>
  <text x="-88" y="58" text-anchor="middle" fill="#9a9690" font-size="14" font-family="sans-serif">F</text>
  <line x1="15" y1="12" x2="75" y2="50" stroke="#4d9460" stroke-width="2.5" stroke-linecap="round"/>
  <text x="88" y="58" text-anchor="middle" fill="#9a9690" font-size="14" font-family="sans-serif">F</text>
  <path d="M-40,26 A48,48 0 0,1 -10,-48" fill="none" stroke="#706b65" stroke-width="0.8" stroke-dasharray="3,2"/>
  <text x="-44" y="-14" fill="#9a9690" font-size="10" font-family="sans-serif">120°</text>
  <text x="0" y="95" text-anchor="middle" fill="#4d9460" font-size="13" font-weight="500" font-family="sans-serif">BF₃ — trigonal planar</text>
</g>

<!-- 4. BENT H2O — 2 lone pairs UP, 2 H DOWN -->
<g transform="translate(510, 400)">
  <circle cx="0" cy="0" r="20" fill="#2a2a2a" stroke="#4d9460" stroke-width="2.2"/>
  <text x="0" y="5" text-anchor="middle" fill="#e8e5de" font-size="15" font-weight="600" font-family="sans-serif">O</text>
  <g transform="rotate(-25)">
    <path d="M-8,-24 C-18,-48 -14,-75 0,-90 C14,-75 18,-48 8,-24 Z" fill="#d4a24c" fill-opacity="0.10" stroke="#d4a24c" stroke-width="1.2" stroke-opacity="0.4"/>
    <path d="M-5,-27 C-11,-45 -9,-65 0,-76 C9,-65 11,-45 5,-27 Z" fill="#d4a24c" fill-opacity="0.18"/>
  </g>
  <g transform="rotate(25)">
    <path d="M-8,-24 C-18,-48 -14,-75 0,-90 C14,-75 18,-48 8,-24 Z" fill="#d4a24c" fill-opacity="0.10" stroke="#d4a24c" stroke-width="1.2" stroke-opacity="0.4"/>
    <path d="M-5,-27 C-11,-45 -9,-65 0,-76 C9,-65 11,-45 5,-27 Z" fill="#d4a24c" fill-opacity="0.18"/>
  </g>
  <text x="0" y="-88" text-anchor="middle" fill="#d4a24c" font-size="11" font-family="sans-serif">2 lone pairs</text>
  <line x1="-14" y1="14" x2="-75" y2="75" stroke="#4d9460" stroke-width="2.5" stroke-linecap="round"/>
  <text x="-85" y="85" text-anchor="middle" fill="#9a9690" font-size="14" font-family="sans-serif">H</text>
  <line x1="14" y1="14" x2="75" y2="75" stroke="#4d9460" stroke-width="2.5" stroke-linecap="round"/>
  <text x="85" y="85" text-anchor="middle" fill="#9a9690" font-size="14" font-family="sans-serif">H</text>
  <path d="M-40,40 A50,50 0 0,1 40,40" fill="none" stroke="#706b65" stroke-width="0.8" stroke-dasharray="3,2"/>
  <text x="0" y="50" text-anchor="middle" fill="#9a9690" font-size="10" font-family="sans-serif">104.5°</text>
  <text x="0" y="110" text-anchor="middle" fill="#4d9460" font-size="13" font-weight="500" font-family="sans-serif">H₂O — bent</text>
</g>

</svg>
