<svg width="100%" viewBox="0 0 680 620" xmlns="http://www.w3.org/2000/svg" style="background:#1a1a1a;border-radius:12px;padding:16px 10px">

<!-- 5. LINEAR CO2 -->
<g transform="translate(170, 60)">
  <circle cx="0" cy="0" r="20" fill="#2a2a2a" stroke="#4d9460" stroke-width="2.2"/>
  <text x="0" y="5" text-anchor="middle" fill="#e8e5de" font-size="15" font-weight="600" font-family="sans-serif">C</text>
  <line x1="-20" y1="-3" x2="-90" y2="-3" stroke="#4d9460" stroke-width="2.2" stroke-linecap="round"/>
  <line x1="-20" y1="3" x2="-90" y2="3" stroke="#4d9460" stroke-width="2.2" stroke-linecap="round"/>
  <text x="-105" y="5" text-anchor="middle" fill="#9a9690" font-size="14" font-family="sans-serif">O</text>
  <line x1="20" y1="-3" x2="90" y2="-3" stroke="#4d9460" stroke-width="2.2" stroke-linecap="round"/>
  <line x1="20" y1="3" x2="90" y2="3" stroke="#4d9460" stroke-width="2.2" stroke-linecap="round"/>
  <text x="105" y="5" text-anchor="middle" fill="#9a9690" font-size="14" font-family="sans-serif">O</text>
  <text x="0" y="35" text-anchor="middle" fill="#9a9690" font-size="10" font-family="sans-serif">180°</text>
  <text x="0" y="60" text-anchor="middle" fill="#4d9460" font-size="13" font-weight="500" font-family="sans-serif">CO₂ — linear</text>
</g>

<!-- 6. OCTAHEDRAL SF6 -->
<g transform="translate(510, 100)">
  <circle cx="0" cy="0" r="20" fill="#2a2a2a" stroke="#4d9460" stroke-width="2.2"/>
  <text x="0" y="5" text-anchor="middle" fill="#e8e5de" font-size="14" font-weight="600" font-family="sans-serif">S</text>
  <line x1="0" y1="-20" x2="0" y2="-80" stroke="#4d9460" stroke-width="2.5" stroke-linecap="round"/>
  <line x1="0" y1="20" x2="0" y2="80" stroke="#4d9460" stroke-width="2.5" stroke-linecap="round"/>
  <line x1="-20" y1="0" x2="-80" y2="0" stroke="#4d9460" stroke-width="2.5" stroke-linecap="round"/>
  <line x1="20" y1="0" x2="80" y2="0" stroke="#4d9460" stroke-width="2.5" stroke-linecap="round"/>
  <polygon points="10,14 42,52 58,42" fill="#4d9460" fill-opacity="0.35" stroke="#4d9460" stroke-width="1" stroke-linejoin="round"/>
  <line x1="-10" y1="-14" x2="-50" y2="-50" stroke="#4d9460" stroke-width="2" stroke-dasharray="5,4" stroke-linecap="round" opacity="0.6"/>
  <text x="0" y="-90" text-anchor="middle" fill="#9a9690" font-size="13" font-family="sans-serif">F</text>
  <text x="0" y="95" text-anchor="middle" fill="#9a9690" font-size="13" font-family="sans-serif">F</text>
  <text x="-90" y="5" text-anchor="middle" fill="#9a9690" font-size="13" font-family="sans-serif">F</text>
  <text x="90" y="5" text-anchor="middle" fill="#9a9690" font-size="13" font-family="sans-serif">F</text>
  <text x="62" y="58" fill="#9a9690" font-size="13" font-family="sans-serif">F</text>
  <text x="-62" y="-52" fill="#9a9690" font-size="13" font-family="sans-serif">F</text>
  <path d="M18,32 A20,20 0 0,1 32,18" fill="none" stroke="#706b65" stroke-width="0.8" stroke-dasharray="3,2"/>
  <text x="38" y="32" fill="#9a9690" font-size="10" font-family="sans-serif">90°</text>
  <text x="0" y="115" text-anchor="middle" fill="#4d9460" font-size="13" font-weight="500" font-family="sans-serif">SF₆ — octahedral</text>
</g>

<!-- 7. TRIGONAL BIPYRAMIDAL PCl5 -->
<g transform="translate(170, 350)">
  <ellipse cx="0" cy="5" rx="100" ry="28" fill="none" stroke="#4d9460" stroke-width="0.5" stroke-dasharray="4,4" opacity="0.2"/>
  <line x1="0" y1="-20" x2="0" y2="-105" stroke="#4d9460" stroke-width="2.5" stroke-linecap="round"/>
  <line x1="0" y1="20" x2="0" y2="105" stroke="#4d9460" stroke-width="2.5" stroke-linecap="round"/>
  <line x1="-20" y1="4" x2="-100" y2="4" stroke="#4d9460" stroke-width="2.5" stroke-linecap="round"/>
  <polygon points="12,14 82,38 86,22" fill="#4d9460" fill-opacity="0.35" stroke="#4d9460" stroke-width="1.2" stroke-linejoin="round"/>
  <line x1="12" y1="-10" x2="82" y2="-32" stroke="#4d9460" stroke-width="2.2" stroke-dasharray="5,4" stroke-linecap="round" opacity="0.6"/>
  <circle cx="0" cy="0" r="20" fill="#2a2a2a" stroke="#4d9460" stroke-width="2.2"/>
  <text x="0" y="5" text-anchor="middle" fill="#e8e5de" font-size="15" font-weight="600" font-family="sans-serif">P</text>
  <text x="0" y="-115" text-anchor="middle" fill="#9a9690" font-size="14" font-family="sans-serif">Cl</text>
  <text x="0" y="120" text-anchor="middle" fill="#9a9690" font-size="14" font-family="sans-serif">Cl</text>
  <text x="-112" y="8" text-anchor="middle" fill="#9a9690" font-size="14" font-family="sans-serif">Cl</text>
  <text x="96" y="44" fill="#9a9690" font-size="14" font-family="sans-serif">Cl</text>
  <text x="92" y="-30" fill="#9a9690" font-size="14" font-family="sans-serif">Cl</text>
  <text x="20" y="-95" fill="#706b65" font-size="9" font-family="sans-serif">axial</text>
  <text x="20" y="115" fill="#706b65" font-size="9" font-family="sans-serif">axial</text>
  <text x="-112" y="22" fill="#706b65" font-size="9" font-family="sans-serif">equatorial</text>
  <path d="M-14,-28 A32,32 0 0,0 -32,-5" fill="none" stroke="#706b65" stroke-width="0.8" stroke-dasharray="3,2"/>
  <text x="-42" y="-22" fill="#9a9690" font-size="10" font-family="sans-serif">90°</text>
  <path d="M-58,12 A25,25 0 0,1 -20,28" fill="none" stroke="#706b65" stroke-width="0.8" stroke-dasharray="3,2"/>
  <text x="-50" y="38" fill="#9a9690" font-size="10" font-family="sans-serif">120°</text>
  <text x="0" y="155" text-anchor="middle" fill="#4d9460" font-size="13" font-weight="500" font-family="sans-serif">PCl₅ — trigonal bipyramidal</text>
  <!-- Bond key -->
  <g transform="translate(-95, 170)">
    <line x1="0" y1="0" x2="30" y2="0" stroke="#4d9460" stroke-width="2.5" stroke-linecap="round"/>
    <text x="38" y="4" fill="#706b65" font-size="9" font-family="sans-serif">in plane</text>
    <polygon points="0,16 30,12 30,20" fill="#4d9460" fill-opacity="0.35" stroke="#4d9460" stroke-width="1"/>
    <text x="38" y="20" fill="#706b65" font-size="9" font-family="sans-serif">towards you</text>
    <line x1="0" y1="32" x2="30" y2="32" stroke="#4d9460" stroke-width="2" stroke-dasharray="5,4" opacity="0.6"/>
    <text x="38" y="36" fill="#706b65" font-size="9" font-family="sans-serif">away from you</text>
  </g>
</g>

<!-- 8. SQUARE PLANAR XeF4 -->
<g transform="translate(510, 350)">
  <circle cx="0" cy="0" r="20" fill="#2a2a2a" stroke="#4d9460" stroke-width="2.2"/>
  <text x="0" y="5" text-anchor="middle" fill="#e8e5de" font-size="13" font-weight="600" font-family="sans-serif">Xe</text>
  <line x1="-14" y1="-14" x2="-68" y2="-68" stroke="#4d9460" stroke-width="2.5" stroke-linecap="round"/>
  <line x1="14" y1="-14" x2="68" y2="-68" stroke="#4d9460" stroke-width="2.5" stroke-linecap="round"/>
  <line x1="-14" y1="14" x2="-68" y2="68" stroke="#4d9460" stroke-width="2.5" stroke-linecap="round"/>
  <line x1="14" y1="14" x2="68" y2="68" stroke="#4d9460" stroke-width="2.5" stroke-linecap="round"/>
  <text x="-78" y="-72" text-anchor="middle" fill="#9a9690" font-size="14" font-family="sans-serif">F</text>
  <text x="78" y="-72" text-anchor="middle" fill="#9a9690" font-size="14" font-family="sans-serif">F</text>
  <text x="-78" y="78" text-anchor="middle" fill="#9a9690" font-size="14" font-family="sans-serif">F</text>
  <text x="78" y="78" text-anchor="middle" fill="#9a9690" font-size="14" font-family="sans-serif">F</text>
  <!-- Lone pairs in axial positions (perpendicular to square) -->
  <g transform="rotate(90)">
    <path d="M-8,-24 C-18,-48 -14,-75 0,-90 C14,-75 18,-48 8,-24 Z" fill="#d4a24c" fill-opacity="0.10" stroke="#d4a24c" stroke-width="1.2" stroke-opacity="0.4"/>
    <path d="M-5,-27 C-11,-45 -9,-65 0,-76 C9,-65 11,-45 5,-27 Z" fill="#d4a24c" fill-opacity="0.18"/>
  </g>
  <g transform="rotate(-90)">
    <path d="M-8,-24 C-18,-48 -14,-75 0,-90 C14,-75 18,-48 8,-24 Z" fill="#d4a24c" fill-opacity="0.10" stroke="#d4a24c" stroke-width="1.2" stroke-opacity="0.4"/>
    <path d="M-5,-27 C-11,-45 -9,-65 0,-76 C9,-65 11,-45 5,-27 Z" fill="#d4a24c" fill-opacity="0.18"/>
  </g>
  <text x="90" y="5" fill="#d4a24c" font-size="10" font-family="sans-serif">LP</text>
  <text x="-100" y="5" fill="#d4a24c" font-size="10" font-family="sans-serif">LP</text>
  <path d="M-42,-42 A20,20 0 0,1 -42,42" fill="none" stroke="#706b65" stroke-width="0.8" stroke-dasharray="3,2"/>
  <text x="-55" y="5" text-anchor="middle" fill="#9a9690" font-size="10" font-family="sans-serif">90°</text>
  <text x="0" y="115" text-anchor="middle" fill="#4d9460" font-size="13" font-weight="500" font-family="sans-serif">XeF₄ — square planar</text>
</g>

</svg>
